<?xml version="1.0" encoding="UTF-8" standalone="no"?>
<!DOCTYPE svg PUBLIC "-//W3C//DTD SVG 1.1//EN"
 "http://www.w3.org/Graphics/SVG/1.1/DTD/svg11.dtd">
<!-- Generated by graphviz version 2.40.1 (20161225.0304)
 -->
<!-- Title: %3 Pages: 1 -->
<svg width="735pt" height="548pt"
 viewBox="0.00 0.00 735.42 548.00" xmlns="http://www.w3.org/2000/svg" xmlns:xlink="http://www.w3.org/1999/xlink">
<g id="graph0" class="graph" transform="scale(1 1) rotate(0) translate(4 544)">
<title>%3</title>
<polygon fill="#ffffff" stroke="transparent" points="-4,4 -4,-544 731.4239,-544 731.4239,4 -4,4"/>
<!-- [root] aws_iam_role.iam_for_lambda -->
<g id="node1" class="node">
<title>[root] aws_iam_role.iam_for_lambda</title>
<polygon fill="none" stroke="#000000" points="482.7843,-252 294.7843,-252 294.7843,-216 482.7843,-216 482.7843,-252"/>
<text text-anchor="middle" x="388.7843" y="-230.3" font-family="Times,serif" font-size="14.00" fill="#000000">aws_iam_role.iam_for_lambda</text>
</g>
<!-- [root] data.aws_iam_policy_document.policy -->
<g id="node4" class="node">
<title>[root] data.aws_iam_policy_document.policy</title>
<polygon fill="none" stroke="#000000" points="501.7843,-180 271.7843,-180 271.7843,-144 501.7843,-144 501.7843,-180"/>
<text text-anchor="middle" x="386.7843" y="-158.3" font-family="Times,serif" font-size="14.00" fill="#000000">data.aws_iam_policy_document.policy</text>
</g>
<!-- [root] aws_iam_role.iam_for_lambda&#45;&gt;[root] data.aws_iam_policy_document.policy -->
<g id="edge1" class="edge">
<title>[root] aws_iam_role.iam_for_lambda&#45;&gt;[root] data.aws_iam_policy_document.policy</title>
<path fill="none" stroke="#000000" d="M388.2796,-215.8314C388.0657,-208.131 387.8114,-198.9743 387.5737,-190.4166"/>
<polygon fill="#000000" stroke="#000000" points="391.0722,-190.3122 387.2958,-180.4133 384.0749,-190.5066 391.0722,-190.3122"/>
</g>
<!-- [root] aws_lambda_function.lambda -->
<g id="node2" class="node">
<title>[root] aws_lambda_function.lambda</title>
<polygon fill="none" stroke="#000000" points="483.2843,-324 302.2843,-324 302.2843,-288 483.2843,-288 483.2843,-324"/>
<text text-anchor="middle" x="392.7843" y="-302.3" font-family="Times,serif" font-size="14.00" fill="#000000">aws_lambda_function.lambda</text>
</g>
<!-- [root] aws_lambda_function.lambda&#45;&gt;[root] aws_iam_role.iam_for_lambda -->
<g id="edge2" class="edge">
<title>[root] aws_lambda_function.lambda&#45;&gt;[root] aws_iam_role.iam_for_lambda</title>
<path fill="none" stroke="#000000" d="M391.7749,-287.8314C391.3471,-280.131 390.8384,-270.9743 390.363,-262.4166"/>
<polygon fill="#000000" stroke="#000000" points="393.8567,-262.2037 389.8073,-252.4133 386.8675,-262.592 393.8567,-262.2037"/>
</g>
<!-- [root] data.archive_file.zip -->
<g id="node3" class="node">
<title>[root] data.archive_file.zip</title>
<polygon fill="none" stroke="#000000" points="673.7843,-252 545.7843,-252 545.7843,-216 673.7843,-216 673.7843,-252"/>
<text text-anchor="middle" x="609.7843" y="-230.3" font-family="Times,serif" font-size="14.00" fill="#000000">data.archive_file.zip</text>
</g>
<!-- [root] aws_lambda_function.lambda&#45;&gt;[root] data.archive_file.zip -->
<g id="edge3" class="edge">
<title>[root] aws_lambda_function.lambda&#45;&gt;[root] data.archive_file.zip</title>
<path fill="none" stroke="#000000" d="M447.2625,-287.9243C477.1856,-277.9959 514.4686,-265.6255 545.7747,-255.2382"/>
<polygon fill="#000000" stroke="#000000" points="546.8948,-258.5543 555.2837,-252.0831 544.6903,-251.9104 546.8948,-258.5543"/>
</g>
<!-- [root] provider.archive -->
<g id="node6" class="node">
<title>[root] provider.archive</title>
<polygon fill="none" stroke="#000000" points="616.7843,-180 519.4229,-162 616.7843,-144 714.1457,-162 616.7843,-180"/>
<text text-anchor="middle" x="616.7843" y="-158.3" font-family="Times,serif" font-size="14.00" fill="#000000">provider.archive</text>
</g>
<!-- [root] data.archive_file.zip&#45;&gt;[root] provider.archive -->
<g id="edge4" class="edge">
<title>[root] data.archive_file.zip&#45;&gt;[root] provider.archive</title>
<path fill="none" stroke="#000000" d="M611.5507,-215.8314C612.3109,-208.0125 613.217,-198.6923 614.0599,-190.0221"/>
<polygon fill="#000000" stroke="#000000" points="617.5586,-190.2052 615.0427,-179.9134 610.5914,-189.5278 617.5586,-190.2052"/>
</g>
<!-- [root] provider.aws -->
<g id="node7" class="node">
<title>[root] provider.aws</title>
<polygon fill="none" stroke="#000000" points="386.7843,-108 306.8509,-90 386.7843,-72 466.7177,-90 386.7843,-108"/>
<text text-anchor="middle" x="386.7843" y="-86.3" font-family="Times,serif" font-size="14.00" fill="#000000">provider.aws</text>
</g>
<!-- [root] data.aws_iam_policy_document.policy&#45;&gt;[root] provider.aws -->
<g id="edge5" class="edge">
<title>[root] data.aws_iam_policy_document.policy&#45;&gt;[root] provider.aws</title>
<path fill="none" stroke="#000000" d="M386.7843,-143.8314C386.7843,-136.131 386.7843,-126.9743 386.7843,-118.4166"/>
<polygon fill="#000000" stroke="#000000" points="390.2844,-118.4132 386.7843,-108.4133 383.2844,-118.4133 390.2844,-118.4132"/>
</g>
<!-- [root] output.lambda -->
<g id="node5" class="node">
<title>[root] output.lambda</title>
<polygon fill="none" stroke="#000000" points="409.2843,-396 320.2843,-396 320.2843,-360 415.2843,-360 415.2843,-390 409.2843,-396"/>
<polyline fill="none" stroke="#000000" points="409.2843,-396 409.2843,-390 "/>
<polyline fill="none" stroke="#000000" points="415.2843,-390 409.2843,-390 "/>
<text text-anchor="middle" x="367.7843" y="-374.3" font-family="Times,serif" font-size="14.00" fill="#000000">output.lambda</text>
</g>
<!-- [root] output.lambda&#45;&gt;[root] aws_lambda_function.lambda -->
<g id="edge7" class="edge">
<title>[root] output.lambda&#45;&gt;[root] aws_lambda_function.lambda</title>
<path fill="none" stroke="#000000" d="M374.0929,-359.8314C376.796,-352.0463 380.0159,-342.7729 383.0153,-334.1347"/>
<polygon fill="#000000" stroke="#000000" points="386.417,-335.0081 386.3908,-324.4133 379.8043,-332.7119 386.417,-335.0081"/>
</g>
<!-- [root] var.aws_region -->
<g id="node8" class="node">
<title>[root] var.aws_region</title>
<polygon fill="none" stroke="#000000" points="430.7843,-36 336.7843,-36 336.7843,0 436.7843,0 436.7843,-30 430.7843,-36"/>
<polyline fill="none" stroke="#000000" points="430.7843,-36 430.7843,-30 "/>
<polyline fill="none" stroke="#000000" points="436.7843,-30 430.7843,-30 "/>
<text text-anchor="middle" x="386.7843" y="-14.3" font-family="Times,serif" font-size="14.00" fill="#000000">var.aws_region</text>
</g>
<!-- [root] provider.aws&#45;&gt;[root] var.aws_region -->
<g id="edge10" class="edge">
<title>[root] provider.aws&#45;&gt;[root] var.aws_region</title>
<path fill="none" stroke="#000000" d="M386.7843,-71.8314C386.7843,-64.131 386.7843,-54.9743 386.7843,-46.4166"/>
<polygon fill="#000000" stroke="#000000" points="390.2844,-46.4132 386.7843,-36.4133 383.2844,-46.4133 390.2844,-46.4132"/>
</g>
<!-- [root] meta.count&#45;boundary (EachMode fixup) -->
<g id="node9" class="node">
<title>[root] meta.count&#45;boundary (EachMode fixup)</title>
<ellipse fill="none" stroke="#000000" cx="176.7843" cy="-450" rx="176.5689" ry="18"/>
<text text-anchor="middle" x="176.7843" y="-446.3" font-family="Times,serif" font-size="14.00" fill="#000000">[root] meta.count&#45;boundary (EachMode fixup)</text>
</g>
<!-- [root] meta.count&#45;boundary (EachMode fixup)&#45;&gt;[root] output.lambda -->
<g id="edge6" class="edge">
<title>[root] meta.count&#45;boundary (EachMode fixup)&#45;&gt;[root] output.lambda</title>
<path fill="none" stroke="#000000" d="M223.0201,-432.5708C249.2903,-422.6679 282.4092,-410.1833 310.3374,-399.6554"/>
<polygon fill="#000000" stroke="#000000" points="311.857,-402.823 319.9797,-396.0206 309.3879,-396.273 311.857,-402.823"/>
</g>
<!-- [root] provider.archive (close) -->
<g id="node10" class="node">
<title>[root] provider.archive (close)</title>
<ellipse fill="none" stroke="#000000" cx="609.7843" cy="-378" rx="117.7793" ry="18"/>
<text text-anchor="middle" x="609.7843" y="-374.3" font-family="Times,serif" font-size="14.00" fill="#000000">[root] provider.archive (close)</text>
</g>
<!-- [root] provider.archive (close)&#45;&gt;[root] data.archive_file.zip -->
<g id="edge8" class="edge">
<title>[root] provider.archive (close)&#45;&gt;[root] data.archive_file.zip</title>
<path fill="none" stroke="#000000" d="M609.7843,-359.7623C609.7843,-335.201 609.7843,-291.2474 609.7843,-262.3541"/>
<polygon fill="#000000" stroke="#000000" points="613.2844,-262.0896 609.7843,-252.0896 606.2844,-262.0897 613.2844,-262.0896"/>
</g>
<!-- [root] provider.aws (close) -->
<g id="node11" class="node">
<title>[root] provider.aws (close)</title>
<ellipse fill="none" stroke="#000000" cx="476.7843" cy="-450" rx="105.0817" ry="18"/>
<text text-anchor="middle" x="476.7843" y="-446.3" font-family="Times,serif" font-size="14.00" fill="#000000">[root] provider.aws (close)</text>
</g>
<!-- [root] provider.aws (close)&#45;&gt;[root] aws_lambda_function.lambda -->
<g id="edge9" class="edge">
<title>[root] provider.aws (close)&#45;&gt;[root] aws_lambda_function.lambda</title>
<path fill="none" stroke="#000000" d="M466.3155,-432.0535C451.7908,-407.154 425.4099,-361.9295 408.5114,-332.9606"/>
<polygon fill="#000000" stroke="#000000" points="411.4471,-331.0469 403.3851,-324.1727 405.4006,-334.5741 411.4471,-331.0469"/>
</g>
<!-- [root] root -->
<g id="node12" class="node">
<title>[root] root</title>
<ellipse fill="none" stroke="#000000" cx="476.7843" cy="-522" rx="47.3916" ry="18"/>
<text text-anchor="middle" x="476.7843" y="-518.3" font-family="Times,serif" font-size="14.00" fill="#000000">[root] root</text>
</g>
<!-- [root] root&#45;&gt;[root] meta.count&#45;boundary (EachMode fixup) -->
<g id="edge11" class="edge">
<title>[root] root&#45;&gt;[root] meta.count&#45;boundary (EachMode fixup)</title>
<path fill="none" stroke="#000000" d="M436.6363,-512.3645C390.6023,-501.3163 314.0124,-482.9347 255.878,-468.9825"/>
<polygon fill="#000000" stroke="#000000" points="256.5241,-465.5382 245.9834,-466.6078 254.8904,-472.3449 256.5241,-465.5382"/>
</g>
<!-- [root] root&#45;&gt;[root] provider.archive (close) -->
<g id="edge12" class="edge">
<title>[root] root&#45;&gt;[root] provider.archive (close)</title>
<path fill="none" stroke="#000000" d="M517.3909,-512.5908C542.2194,-504.7494 572.6016,-491.0339 590.7843,-468 604.5596,-450.5495 608.9714,-425.462 610.1299,-406.2048"/>
<polygon fill="#000000" stroke="#000000" points="613.6283,-406.3072 610.4776,-396.1917 606.6326,-406.0642 613.6283,-406.3072"/>
</g>
<!-- [root] root&#45;&gt;[root] provider.aws (close) -->
<g id="edge13" class="edge">
<title>[root] root&#45;&gt;[root] provider.aws (close)</title>
<path fill="none" stroke="#000000" d="M476.7843,-503.8314C476.7843,-496.131 476.7843,-486.9743 476.7843,-478.4166"/>
<polygon fill="#000000" stroke="#000000" points="480.2844,-478.4132 476.7843,-468.4133 473.2844,-478.4133 480.2844,-478.4132"/>
</g>
</g>
</svg>
